<?xml version="1.0" encoding="UTF-8"?>
<svg version="1.1" xmlns="http://www.w3.org/2000/svg" width="512" height="512">
<path d="M0 0 C6.08901639 4.60748717 11.4239643 10.27685366 16.8046875 15.671875 C17.60987823 16.47610901 18.41506897 17.28034302 19.24465942 18.10894775 C20.93158718 19.79519952 22.6172709 21.48269667 24.30175781 23.17138672 C26.88493268 25.75995342 29.47344803 28.34309419 32.0625 30.92578125 C33.70605021 32.56999165 35.34929051 34.2145119 36.9921875 35.859375 C38.15305374 37.0172049 38.15305374 37.0172049 39.33737183 38.19842529 C40.05216705 38.91637268 40.76696228 39.63432007 41.50341797 40.37402344 C42.13214813 41.00354919 42.7608783 41.63307495 43.40866089 42.28167725 C45.7517468 44.81173373 46.94352793 46.46916257 47.3125 49.9375 C46.96630334 53.3302273 46.38660514 54.61339486 44 57 C40.11562746 58.29479085 36.44117884 58.12336918 32.39453125 58.09765625 C31.65054077 58.09664917 30.90655029 58.09564209 30.14001465 58.09460449 C27.36416073 58.08937743 24.58832879 58.07541615 21.8125 58.0625 C15.604375 58.041875 9.39625 58.02125 3 58 C3 75.16 3 92.32 3 110 C4.65 110.66 6.3 111.32 8 112 C9.96337414 113.04863395 11.90870909 114.13139819 13.83984375 115.23828125 C14.97349365 115.88659912 16.10714355 116.53491699 17.27514648 117.20288086 C18.49604096 117.9058963 19.71682271 118.60910753 20.9375 119.3125 C22.20705521 120.04119706 23.47666853 120.76979287 24.74633789 121.49829102 C33.9648803 126.79528221 43.1319394 132.17661922 52.2734375 137.60546875 C58.85470389 141.51273346 65.4582653 145.38175229 72.0625 149.25 C73.29297544 149.97093585 74.52344417 150.69188315 75.75390625 151.4128418 C79.50236545 153.60896884 83.25115319 155.8045347 87 158 C89.5078478 159.46868973 92.01566642 160.93742927 94.5234375 162.40625 C95.44845818 162.94803391 95.44845818 162.94803391 96.39216614 163.50076294 C101.21698638 166.32704629 106.03984285 169.1566672 110.86198425 171.98751831 C114.7725095 174.28237455 118.68821514 176.56821521 122.60546875 178.8515625 C124.61206603 180.02589326 126.61858133 181.2003641 128.625 182.375 C129.53757568 182.90448242 130.45015137 183.43396484 131.39038086 183.97949219 C132.2231958 184.46836914 133.05601074 184.95724609 133.9140625 185.4609375 C134.6354541 185.88165527 135.3568457 186.30237305 136.10009766 186.73583984 C138.06156645 188.04096519 139.49049582 189.18895531 141 191 C141.38031673 192.96655941 141.38031673 192.96655941 141.38768005 195.24412537 C141.402537 196.5416272 141.402537 196.5416272 141.41769409 197.86534119 C141.41319244 198.81139725 141.4086908 199.75745331 141.40405273 200.73217773 C141.41434761 202.23012375 141.41434761 202.23012375 141.42485046 203.7583313 C141.44318582 207.06689583 141.43927125 210.37498921 141.43359375 213.68359375 C141.43815237 215.97901057 141.44345698 218.27442603 141.44947815 220.56983948 C141.45842256 225.38426248 141.45597101 230.19851973 141.44604492 235.01293945 C141.43455488 241.18827989 141.45476104 247.36304857 141.48396206 253.53831387 C141.50229214 258.2797663 141.50203792 263.02108093 141.49632454 267.76255989 C141.49617093 270.03957992 141.502248 272.31660906 141.51461601 274.5935955 C141.52946321 277.77557297 141.5188944 280.95648406 141.50170898 284.13842773 C141.51137695 285.08245956 141.52104492 286.02649139 141.53100586 286.99913025 C141.45905348 293.34862417 141.45905348 293.34862417 139.15614319 296.61634827 C137 298 137 298 134 298 C134 303.28 134 308.56 134 314 C135.65 314.33 137.3 314.66 139 315 C139.66 315.66 140.32 316.32 141 317 C140.92742463 319.47871339 140.74749972 321.86237598 140.5 324.32421875 C138.85329972 340.43432391 138.85329972 340.43432391 144.28417969 354.94384766 C150.36010994 359.82405943 157.35910505 362.73170495 164.56445312 365.57080078 C169.71427334 367.71314356 174.37179167 370.54125993 179.125 373.4375 C180.66699812 374.3359433 182.21102313 375.23092455 183.7578125 376.12109375 C184.82773437 376.74113281 185.89765625 377.36117188 187 378 C187.26047119 377.3002002 187.52094238 376.60040039 187.78930664 375.87939453 C189.87852495 370.91060228 192.69813383 366.33859832 195.39477539 361.67919922 C196.43649164 359.87674474 197.46947441 358.06947683 198.50195312 356.26171875 C199.16001953 355.12089844 199.81808594 353.98007812 200.49609375 352.8046875 C201.09607178 351.76296387 201.6960498 350.72124023 202.31420898 349.64794922 C203.74300803 347.40366907 204.96288526 345.68843221 207 344 C208.9375 343.6015625 208.9375 343.6015625 211 343.625 C211.680625 343.61726563 212.36125 343.60953125 213.0625 343.6015625 C215.63425085 344.13043062 216.34136734 344.96899388 218 347 C218.96818542 349.54679871 218.96818542 349.54679871 219.80932617 352.62963867 C220.28948433 354.36240303 220.28948433 354.36240303 220.77934265 356.13017273 C221.11383926 357.38014542 221.44833588 358.6301181 221.79296875 359.91796875 C222.14680771 361.21747337 222.50125336 362.51681293 222.85627747 363.81599426 C223.59823959 366.54037929 224.33281384 369.26662177 225.06225586 371.99438477 C225.99327653 375.47362735 226.94230107 378.94764534 227.89701366 382.42045116 C228.63275138 385.10466168 229.35873665 387.79143745 230.08190346 390.47905922 C230.5950034 392.37921261 231.1161679 394.27718246 231.63749695 396.1750946 C234.80153006 408.1013654 234.80153006 408.1013654 234 414 C231.13501746 417.60257098 228.53837576 418.75922951 224.14916992 419.9387207 C222.97082077 420.2619783 221.79247162 420.5852359 220.57841492 420.91828918 C219.30859268 421.25076157 218.03877045 421.58323395 216.73046875 421.92578125 C215.40752326 422.28037522 214.0847978 422.63579098 212.76228333 422.99198914 C209.99313394 423.73444598 207.22160355 424.46700023 204.44799805 425.19262695 C200.90576147 426.12016451 197.37053978 427.0717828 193.83675671 428.03095722 C191.10685669 428.76906829 188.37365518 429.49427912 185.63930702 430.21571922 C183.70376518 430.72879234 181.77105781 431.25252035 179.83842468 431.77644348 C166.73490795 435.16865623 166.73490795 435.16865623 161.0625 431.875 C159.37121428 428.89037814 159.76267857 426.37761986 160 423 C161.3293457 419.89794922 161.3293457 419.89794922 163.17578125 416.8046875 C164.17061523 415.11279297 164.17061523 415.11279297 165.18554688 413.38671875 C165.89419278 412.2159409 166.60318014 411.04536966 167.3125 409.875 C168.01115942 408.69744042 168.70843806 407.51906046 169.40429688 406.33984375 C171.25511373 403.21759618 173.12331074 400.10674103 175 397 C176.00043765 395.333596 177.00059031 393.66702071 178 392 C174.23195468 389.73112936 170.46390179 387.46237953 166.68701172 385.20825195 C161.76145444 382.26814063 156.8578699 379.29918433 151.984375 376.2734375 C150.03133589 375.07798467 148.07821306 373.8826686 146.125 372.6875 C145.20509277 372.10653564 144.28518555 371.52557129 143.33740234 370.92700195 C142.4655127 370.3980835 141.59362305 369.86916504 140.6953125 369.32421875 C139.93234863 368.85072998 139.16938477 368.37724121 138.38330078 367.8894043 C135.15342455 366.68407351 133.30700848 367.08997552 130 368 C127.04656447 369.38708759 127.04656447 369.38708759 124.08984375 371.21875 C123.53371399 371.54832199 122.97758423 371.87789398 122.40460205 372.217453 C120.57697653 373.30307265 118.7574353 374.40154614 116.9375 375.5 C115.64748585 376.26898334 114.3568659 377.03695122 113.06567383 377.80395508 C110.38060533 379.40003813 107.69820207 381.00046831 105.01757812 382.60400391 C99.36700703 385.97966312 93.68549869 389.30228631 88.00369263 392.625 C86.17818785 393.69294775 84.35348748 394.76225667 82.52905273 395.83203125 C74.06274708 400.79620475 65.58712798 405.74430017 57.10742188 410.68554688 C50.38621034 414.60364154 43.67283087 418.53489063 36.96313477 422.47265625 C34.46849618 423.93655324 31.97289145 425.39877967 29.47631836 426.859375 C28.26805012 427.56637841 27.05979794 428.27340929 25.8515625 428.98046875 C25.26498367 429.32371185 24.67840485 429.66695496 24.0740509 430.02059937 C20.42215775 432.15993068 16.78227041 434.31844311 13.1484375 436.48828125 C12.27807861 437.00366455 11.40771973 437.51904785 10.51098633 438.05004883 C8.93863691 438.9811669 7.37037039 439.91923408 5.80737305 440.8659668 C1.92226394 443.15408176 -1.3764547 445.04247351 -6 445 C-8.7750505 443.81415875 -11.12338276 442.60525169 -13.6875 441.0625 C-14.45513672 440.61865967 -15.22277344 440.17481934 -16.01367188 439.7175293 C-18.68716195 438.16365464 -21.34378179 436.58320672 -24 435 C-26.08956398 433.76515146 -28.17942128 432.53079917 -30.26953125 431.296875 C-33.67307648 429.2840741 -37.0751576 427.26892375 -40.47216797 425.24511719 C-48.38135387 420.53451128 -56.33035397 415.89882445 -64.3125 411.3125 C-73.05571474 406.28666729 -81.76539831 401.21011158 -90.44018555 396.06713867 C-98.32108047 391.3956838 -106.22063058 386.75657803 -114.125 382.125 C-115.03362289 381.59244598 -115.03362289 381.59244598 -115.96060181 381.0491333 C-116.55215057 380.70243591 -117.14369934 380.35573853 -117.75317383 379.99853516 C-118.33591568 379.65672211 -118.91865753 379.31490906 -119.51905823 378.96273804 C-121.23329192 377.95966063 -122.95109653 376.96269391 -124.66894531 375.96582031 C-126.90735245 374.64482542 -129.12562708 373.28916468 -131.32324219 371.90136719 C-132.36899414 371.25071289 -133.41474609 370.60005859 -134.4921875 369.9296875 C-135.41112793 369.34171387 -136.33006836 368.75374023 -137.27685547 368.14794922 C-140.7340838 366.69054491 -142.4222267 366.95748931 -146 368 C-148.79437096 369.32226536 -148.79437096 369.32226536 -151.52734375 371.0625 C-152.56060791 371.6908374 -153.59387207 372.3191748 -154.65844727 372.96655273 C-155.74053467 373.63759033 -156.82262207 374.30862793 -157.9375 375 C-159.04601318 375.67683838 -160.15452637 376.35367676 -161.29663086 377.05102539 C-163.51080591 378.40301239 -165.7228477 379.75849999 -167.93261719 381.11767578 C-171.95800781 383.58788922 -176.00786509 386.0157335 -180.0625 388.4375 C-182.04183857 389.62471345 -184.02103761 390.81215961 -186 392 C-183.91926635 395.61157276 -181.83794837 399.22280795 -179.75610352 402.83374023 C-179.04891404 404.06053706 -178.34188043 405.28742375 -177.63500977 406.5144043 C-176.61516264 408.28458291 -175.59474343 410.05443069 -174.57421875 411.82421875 C-173.96151123 412.88729248 -173.34880371 413.95036621 -172.7175293 415.0456543 C-171.6165999 416.93937805 -170.48254213 418.81444928 -169.30786133 420.66333008 C-167.44477794 423.99197879 -167.45532862 426.25538424 -168 430 C-169.9375 432.5 -169.9375 432.5 -173 434 C-180.576083 433.60191119 -187.67953257 431.70747143 -194.98828125 429.76171875 C-196.20903854 429.43967972 -197.42979584 429.11764069 -198.68754578 428.7858429 C-201.25436235 428.10588258 -203.82019766 427.42300016 -206.38500977 426.7355957 C-209.66419272 425.85770099 -212.94798663 424.99859103 -216.23330402 424.14398479 C-219.3840654 423.3204987 -222.52956907 422.47738935 -225.67578125 421.63671875 C-227.43986076 421.18023201 -227.43986076 421.18023201 -229.23957825 420.71452332 C-230.33138901 420.41774185 -231.42319977 420.12096039 -232.5480957 419.81518555 C-233.5069014 419.56061081 -234.46570709 419.30603607 -235.4535675 419.04374695 C-238.43086938 417.82339269 -239.98979334 416.49959425 -242 414 C-243.01115573 406.55868439 -240.56532033 399.55286009 -238.60546875 392.41796875 C-238.25334444 391.11395339 -237.90181749 389.8097766 -237.55085754 388.50544739 C-236.81674386 385.78638723 -236.07542406 383.06942621 -235.32885742 380.35375977 C-234.37346238 376.87614224 -233.43649691 373.39386664 -232.50481701 369.90983105 C-231.78382696 367.2217993 -231.05316072 364.53647225 -230.31954384 361.85186195 C-229.80063496 359.94612356 -229.28992567 358.03815864 -228.77934265 356.13017273 C-228.45923721 354.97499649 -228.13913177 353.81982025 -227.80932617 352.62963867 C-227.53174973 351.61230148 -227.25417328 350.59496429 -226.96818542 349.54679871 C-225.96807635 346.91602527 -225.2697875 345.63929215 -223 344 C-217.42607683 343.29220023 -217.42607683 343.29220023 -215 344 C-211.97062773 347.44045131 -209.64610872 351.10557877 -207.36328125 355.0703125 C-206.70392578 356.21371094 -206.04457031 357.35710937 -205.36523438 358.53515625 C-205.02838623 359.12441895 -204.69153809 359.71368164 -204.34448242 360.32080078 C-203.30980161 362.12971756 -202.26771646 363.93421297 -201.22460938 365.73828125 C-196.13396516 374.59810451 -196.13396516 374.59810451 -195 378 C-183.5191412 371.67058321 -172.23013099 365.02972174 -160.9675293 358.32226562 C-159.83613525 357.64873047 -158.70474121 356.97519531 -157.5390625 356.28125 C-156.52021973 355.67345703 -155.50137695 355.06566406 -154.45166016 354.43945312 C-152.99249683 353.58272867 -151.51344228 352.75672114 -150 352 C-150.00222061 351.17577986 -150.00444122 350.35155972 -150.00672913 349.5023632 C-150.0580165 329.4466143 -150.06521347 309.39127213 -150.02334595 289.33549309 C-150.00416206 279.63660083 -149.99989744 269.93813058 -150.03076172 260.23925781 C-150.05762556 251.78559511 -150.05648989 243.33247902 -150.02174091 234.87883675 C-150.00431848 230.40252393 -150.00091114 225.92719027 -150.03103638 221.45092392 C-150.05895743 217.23643118 -150.0494055 213.02367514 -150.01126289 208.80927849 C-150.0038519 207.26374746 -150.01006553 205.71808093 -150.03101921 204.17267418 C-150.17785233 192.50730312 -150.17785233 192.50730312 -147.28005981 188.79898453 C-145.24444877 187.24087405 -143.3042822 186.11014649 -141 185 C-139.78197419 184.23248968 -138.56973228 183.45560847 -137.3671875 182.6640625 C-136.20632631 181.97892171 -135.04228428 181.29913946 -133.875 180.625 C-133.29363281 180.27050781 -132.71226562 179.91601562 -132.11328125 179.55078125 C-128.24424796 177.30899239 -125.4503836 176.44524304 -121 177 C-120.34257812 177.39960938 -119.68515625 177.79921875 -119.0078125 178.2109375 C-118.34523438 178.47132813 -117.68265625 178.73171875 -117 179 C-113.93509336 177.69498223 -113.93509336 177.69498223 -110.875 175.625 C-105.15057915 172 -105.15057915 172 -103 172 C-103.165 170.80375 -103.33 169.6075 -103.5 168.375 C-103.49038984 165.64571437 -103.37273143 164.43179816 -101.5703125 162.34375 C-99.45096954 160.74360351 -97.27781477 159.36521693 -95 158 C-94.17113281 157.44957031 -93.34226563 156.89914063 -92.48828125 156.33203125 C-87.66282 153.22097583 -83.81095045 151 -78 151 C-77.01 151.66 -76.02 152.32 -75 153 C-71.15930799 152.66675124 -68.06354234 150.43241007 -64.8125 148.5 C-63.74644531 147.8709375 -62.68039063 147.241875 -61.58203125 146.59375 C-59.15702376 145.23379296 -59.15702376 145.23379296 -58 144 C-57.9175 142.906875 -57.835 141.81375 -57.75 140.6875 C-56.82182737 136.12398456 -55.72577207 135.62430311 -52 133 C-49.86229326 131.66391204 -47.69975869 130.36707798 -45.51953125 129.1015625 C-44.90663742 128.74411957 -44.29374359 128.38667664 -43.66227722 128.0184021 C-41.71453568 126.883463 -39.76366172 125.75404709 -37.8125 124.625 C-35.88537496 123.50510228 -33.95892077 122.3840596 -32.03268433 121.26263428 C-30.78192405 120.53491259 -29.53056782 119.80821415 -28.27859497 119.08258057 C-23.76275339 116.46138615 -19.29775953 113.76438715 -14.86206055 111.00927734 C-13 110 -13 110 -11 110 C-11 92.84 -11 75.68 -11 58 C-23.28083993 58.11852731 -23.28083993 58.11852731 -35.5612793 58.27026367 C-37.10725279 58.27903011 -38.65323322 58.28667368 -40.19921875 58.29296875 C-41.39158142 58.3159906 -41.39158142 58.3159906 -42.60803223 58.33947754 C-47.20078429 58.34163748 -50.32508846 58.07777735 -54 55 C-55.0625 51.6875 -55.0625 51.6875 -55 48 C-51.71137239 41.92436171 -46.63899001 37.35059329 -41.78125 32.515625 C-40.88635864 31.61882019 -39.99146729 30.72201538 -39.06945801 29.79803467 C-37.18234078 27.90955993 -35.29334903 26.02322101 -33.40087891 24.14013672 C-30.97980546 21.73048969 -28.56786691 19.31192928 -26.15848541 16.8905983 C-23.85009943 14.57324013 -21.53409885 12.26352319 -19.21875 9.953125 C-18.35511841 9.08544495 -17.49148682 8.21776489 -16.60168457 7.3237915 C-15.79404663 6.52245789 -14.98640869 5.72112427 -14.15429688 4.89550781 C-13.44688354 4.18968567 -12.73947021 3.48386353 -12.01062012 2.75665283 C-7.94210058 -0.79796015 -5.24182919 -1.71367493 0 0 Z " fill="#010100" transform="translate(260,34)"/>
<path d="M0 0 C2.88305664 1.40429687 2.88305664 1.40429687 5.91015625 3.21875 C6.744011 3.71290405 6.744011 3.71290405 7.5947113 4.21704102 C9.42256773 5.30279451 11.24233409 6.4014117 13.0625 7.5 C14.35617672 8.27117981 15.65045902 9.04134455 16.9453125 9.81054688 C19.63403607 11.40883884 22.32010496 13.01146078 25.00439453 14.6171875 C30.55234684 17.9315007 36.13140743 21.19237897 41.71066284 24.45361328 C44.72526982 26.21652571 47.73750535 27.9834813 50.75 29.75 C51.95832216 30.45835239 53.16665549 31.16668573 54.375 31.875 C61.625 36.125 61.625 36.125 63.43710327 37.18727112 C64.64675475 37.8963747 65.85641052 38.60547096 67.06607056 39.31455994 C70.06677132 41.0735488 73.06740003 42.83266034 76.06787109 44.59204102 C81.74542375 47.92099855 87.4237499 51.24861842 93.10443115 54.57223511 C95.79636814 56.14731141 98.48792093 57.72304355 101.17944336 59.29882812 C102.46619749 60.05192403 103.75314109 60.80469631 105.0402832 61.55712891 C106.82160257 62.59847245 108.60227414 63.64091553 110.3828125 64.68359375 C111.39746582 65.27712646 112.41211914 65.87065918 113.45751953 66.48217773 C115.33638437 67.60383154 117.17930353 68.78620235 119 70 C119 70.66 119 71.32 119 72 C116.7980957 73.51782227 116.7980957 73.51782227 113.67578125 75.31640625 C113.1111618 75.64456329 112.54654236 75.97272034 111.96481323 76.31082153 C110.08459862 77.40159247 108.19856832 78.48188752 106.3125 79.5625 C104.99409518 80.32514629 103.67614879 81.08858557 102.35864258 81.8527832 C99.61227611 83.44496535 96.86394265 85.03367331 94.11425781 86.62011719 C88.39161694 89.92558338 82.69504345 93.27526956 76.99765015 96.62399292 C73.97244218 98.40137591 70.94530216 100.17545901 67.91796875 101.94921875 C67.33092667 102.29318192 66.74388458 102.63714508 66.13905334 102.99153137 C60.43046647 106.33529217 54.71577882 109.66855311 49 113 C40.50854049 117.94968308 32.02244313 122.90843655 23.54199219 127.87695312 C22.2859136 128.6128117 21.02973245 129.34849524 19.7734375 130.08398438 C18.58304559 130.78095626 17.39291512 131.47837488 16.20306396 132.17626953 C14.51513235 133.16490923 12.8244901 134.14891637 11.13378906 135.1328125 C9.11146515 136.33776212 7.11090255 137.58038727 5.13964844 138.8671875 C-1.20257895 142.97696979 -1.20257895 142.97696979 -5.24609375 143.09375 C-8.43761983 141.82619354 -11.1546893 140.33725585 -14.0625 138.5 C-15.38669656 137.67885018 -16.71235589 136.86005694 -18.0390625 136.04296875 C-19.18616699 135.33406494 -19.18616699 135.33406494 -20.35644531 134.61083984 C-25.21770842 131.64864794 -30.13839918 128.78663441 -35.052948 125.9140625 C-36.95587582 124.80175892 -38.85803146 123.68814506 -40.76000977 122.57421875 C-49.46592388 117.47652873 -58.17988121 112.39265672 -66.89575195 107.31201172 C-86.96943477 95.60750281 -107.00698301 83.84180105 -127 72 C-126.67 71.01 -126.34 70.02 -126 69 C-124.845 68.4225 -123.69 67.845 -122.5 67.25 C-120.57386528 66.30363286 -120.57386528 66.30363286 -119 65 C-118.01047282 61.4917453 -118.01047282 61.4917453 -118 58 C-116.64625203 53.93875609 -114.73741172 53.39684351 -111.0625 51.3125 C-109.98097656 50.68988281 -108.89945313 50.06726563 -107.78515625 49.42578125 C-105 48 -105 48 -103 48 C-103.2475 46.205625 -103.2475 46.205625 -103.5 44.375 C-103.49038984 41.64571437 -103.37273143 40.43179816 -101.5703125 38.34375 C-99.45096954 36.74360351 -97.27781477 35.36521693 -95 34 C-94.17113281 33.44957031 -93.34226563 32.89914063 -92.48828125 32.33203125 C-87.66282 29.22097583 -83.81095045 27 -78 27 C-77.01 27.66 -76.02 28.32 -75 29 C-70.10488768 28.59910718 -65.90469775 24.94722133 -61.875 22.3984375 C-59 21 -59 21 -56.6875 21.2265625 C-55 22 -55 22 -54 23 C-46.64455706 24.18896201 -41.71216418 20.37616799 -35.625 16.625 C-34.56877441 15.99392334 -33.51254883 15.36284668 -32.42431641 14.71264648 C-27.54066596 11.79037725 -22.6929336 8.81279799 -17.859375 5.80859375 C-17.09415527 5.34050293 -16.32893555 4.87241211 -15.54052734 4.39013672 C-14.13525082 3.52859289 -12.73900416 2.65207601 -11.35400391 1.75830078 C-7.03140641 -0.89189634 -4.85716575 -1.23394199 0 0 Z " fill="#F1D92F" transform="translate(260,158)"/>
<path d="M0 0 C0.00808685 1.07075272 0.01617371 2.14150543 0.02450562 3.2447052 C0.10191445 13.32443667 0.18964034 23.40403229 0.28752708 33.48358631 C0.33752117 38.66586938 0.38385092 43.84813176 0.421875 49.03051758 C0.45868849 54.02968976 0.50503767 59.02869009 0.55806351 64.02771568 C0.57662841 65.93710001 0.59172858 67.84652121 0.60334396 69.75596046 C0.62017058 72.4257844 0.64919673 75.09521293 0.68115234 77.76489258 C0.68331253 78.55827026 0.68547272 79.35164795 0.68769836 80.16906738 C0.74600904 83.97030773 0.84039667 85.760595 3 89 C5.05925139 89.72382467 5.05925139 89.72382467 7 90 C7.16225719 92.75236274 7.2809328 95.49517476 7.375 98.25 C7.42527344 99.02730469 7.47554687 99.80460937 7.52734375 100.60546875 C7.54667969 101.35957031 7.56601562 102.11367188 7.5859375 102.890625 C7.6173584 103.58188477 7.6487793 104.27314453 7.68115234 104.98535156 C7 107 7 107 3.95654297 108.78686523 C2.98088379 109.51719971 2.00522461 110.24753418 1 111 C0.70324846 113.82376378 0.74731468 115.76933829 1.109375 118.51953125 C1.22944676 120.0245378 1.34020745 121.53031031 1.44262695 123.03662109 C1.49826813 123.81801453 1.5539093 124.59940796 1.61123657 125.40447998 C2.60186024 142.59518839 2.60186024 142.59518839 -2.21826172 148.90283203 C-8.29095511 153.79585488 -15.35338152 156.67914087 -22.54980469 159.55078125 C-27.61624974 161.67888894 -32.15621748 164.47979522 -36.8125 167.375 C-38.60033791 168.44044919 -40.3907756 169.50154624 -42.18359375 170.55859375 C-43.11026855 171.10757324 -44.03694336 171.65655273 -44.99169922 172.22216797 C-50.77773407 175.64157275 -56.57642563 179.03941988 -62.375 182.4375 C-63.2989859 182.97905731 -63.2989859 182.97905731 -64.24163818 183.53155518 C-73.60046163 189.01613411 -82.96872572 194.48438318 -92.34350586 199.94165039 C-97.35469286 202.86189972 -102.35567145 205.79823958 -107.34375 208.7578125 C-108.36670166 209.36463867 -109.38965332 209.97146484 -110.44360352 210.59667969 C-112.40103201 211.75935678 -114.35730031 212.92398994 -116.31225586 214.09082031 C-117.17729736 214.60483398 -118.04233887 215.11884766 -118.93359375 215.6484375 C-119.69728271 216.10395996 -120.46097168 216.55948242 -121.24780273 217.02880859 C-123 218 -123 218 -124 218 C-124 169.82 -124 121.64 -124 72 C-114.76 66.72 -105.52 61.44 -96 56 C-87.85718521 51.20757806 -87.85718521 51.20757806 -79.7265625 46.39453125 C-73.14529535 42.48726609 -66.5416922 38.61832135 -59.9375 34.75 C-58.71214886 34.03199837 -57.48680708 33.31398076 -56.26147461 32.59594727 C-50.565907 29.25875969 -44.86931403 25.92332724 -39.17189026 22.58930969 C-36.61369451 21.09216812 -34.05575568 19.5945882 -31.49795532 18.09677124 C-30.25678479 17.36996258 -29.01555423 16.6432564 -27.77426147 15.91665649 C-19.59822276 11.12967636 -11.44972502 6.30173334 -3.359375 1.37109375 C-1 0 -1 0 0 0 Z " fill="#F1D92F" transform="translate(387,241)"/>
<path d="M0 0 C2.39656988 1.27140229 4.79236588 2.54422725 7.18774414 3.81787109 C7.86131203 4.17501694 8.53487991 4.53216278 9.22885895 4.90013123 C14.39909759 7.65129992 19.44509915 10.56242558 24.4375 13.625 C31.83566079 18.1108735 39.27207841 22.52333834 46.75 26.875 C47.75329346 27.45902588 48.75658691 28.04305176 49.7902832 28.64477539 C51.83555682 29.83468455 53.88104936 31.02421748 55.92675781 32.21337891 C60.99482156 35.15968416 66.06040413 38.11023821 71.125 41.0625 C72.1162085 41.6402417 73.10741699 42.2179834 74.12866211 42.81323242 C81.68022932 47.21939429 89.21262705 51.65735727 96.72900391 56.12329102 C97.53644043 56.60209717 98.34387695 57.08090332 99.17578125 57.57421875 C99.98618866 58.09409866 100.79659607 58.61397858 101.63156128 59.14961243 C104.39103778 60.66547822 106.70832302 61.60679752 109.65979004 62.58023071 C115.34308395 64.71977038 120.2227172 67.11194858 124 72 C127.31472977 81.59915366 126.2711297 92.57657724 125.92648482 102.59698081 C125.80702525 106.65892832 125.79649851 110.72118928 125.77400208 114.78462219 C125.71513495 122.46492659 125.55951891 130.14004149 125.36836177 137.81806833 C125.15536739 146.56469959 125.05137599 155.31159013 124.95614851 164.06017244 C124.75798372 182.04304864 124.42419688 200.02110609 124 218 C122.23497727 217.03886497 120.47014705 216.0773764 118.70539856 215.11573792 C117.23118297 214.31265119 117.23118297 214.31265119 115.72718525 213.49334049 C112.80235693 211.89177545 109.9003046 210.25586376 107.01171875 208.58984375 C105.98739746 207.99937256 104.96307617 207.40890137 103.90771484 206.80053711 C102.84504395 206.18573486 101.78237305 205.57093262 100.6875 204.9375 C98.98907959 203.95632202 98.98907959 203.95632202 97.25634766 202.95532227 C89.20095695 198.29649992 81.17934524 193.58221897 73.17480469 188.83666992 C66.61171099 184.94670655 60.03007411 181.08977456 53.4375 177.25 C42.99589733 171.16839976 32.56850195 165.06290257 22.14624023 158.94824219 C21.56110153 158.60500412 20.97596283 158.26176605 20.37309265 157.90812683 C15.66323134 155.14522167 15.66323134 155.14522167 14.01641846 154.12708473 C11.8913136 152.89101848 11.8913136 152.89101848 9.06707764 151.75955772 C0.66985336 147.82065422 0.66985336 147.82065422 -1.09266281 143.03015423 C-1.4796994 139.25837623 -1.48702911 135.58303328 -1.36230469 131.80297852 C-1.35891623 130.36354355 -1.36082683 128.92408787 -1.36761475 127.48466492 C-1.37104861 123.59080813 -1.30068203 119.70141627 -1.21672726 115.80859494 C-1.14153906 111.73557983 -1.13464961 107.66245393 -1.12042236 103.58885193 C-1.08317272 95.88158641 -0.98477306 88.17637157 -0.86422849 80.47000784 C-0.7299424 71.69400318 -0.66408282 62.9178988 -0.60388327 54.14112198 C-0.47856264 36.09292006 -0.26759393 18.04662507 0 0 Z " fill="#F1D92F" transform="translate(125,241)"/>
<path d="M0 0 C2.77743251 2.48347449 4.42434752 5.22448199 6.2578125 8.453125 C6.87970459 9.54125488 7.50159668 10.62938477 8.14233398 11.75048828 C8.4666037 12.32285217 8.79087341 12.89521606 9.12496948 13.48492432 C10.79660796 16.4354027 12.48320975 19.37731318 14.16796875 22.3203125 C14.82200684 23.4640332 15.47604492 24.60775391 16.14990234 25.78613281 C19.67620265 31.91178829 23.32415231 37.96324201 27 44 C24.01466618 45.49266691 22.09141546 44.45021859 18.890625 43.63671875 C17.66085938 43.32669922 16.43109375 43.01667969 15.1640625 42.69726562 C14.52114258 42.53137939 13.87822266 42.36549316 13.21582031 42.19458008 C11.27331936 41.69351519 9.32807239 41.20313541 7.3828125 40.71289062 C1.85087478 39.30680833 -3.60042403 37.85884533 -9 36 C-8.33735598 31.72190556 -7.45409801 27.55915941 -6.40625 23.359375 C-6.09816406 22.12445313 -5.79007813 20.88953125 -5.47265625 19.6171875 C-5.15167969 18.34101563 -4.83070312 17.06484375 -4.5 15.75 C-4.17562042 14.44535248 -3.85140021 13.14066532 -3.52734375 11.8359375 C-3.21925781 10.60617187 -2.91117188 9.37640625 -2.59375 8.109375 C-2.31208984 6.98499023 -2.03042969 5.86060547 -1.74023438 4.70214844 C-1 2 -1 2 0 0 Z " fill="#ED5555" transform="translate(43,404)"/>
<path d="M0 0 C2.57882787 2.57882787 2.82227453 4.57407852 3.69140625 8.109375 C3.99626953 9.33914063 4.30113281 10.56890625 4.61523438 11.8359375 C4.77080811 12.47885742 4.92638184 13.12177734 5.08666992 13.78417969 C5.55772585 15.73027633 6.03955253 17.6737556 6.52148438 19.6171875 C7.86041866 25.06389258 9.13641209 30.45502193 10 36 C8.68902344 36.34611328 8.68902344 36.34611328 7.3515625 36.69921875 C5.50691406 37.18841797 5.50691406 37.18841797 3.625 37.6875 C2.96467773 37.86176514 2.30435547 38.03603027 1.62402344 38.21557617 C-2.2299934 39.23910342 -6.06920271 40.30117695 -9.8984375 41.4140625 C-10.70619629 41.64649658 -11.51395508 41.87893066 -12.34619141 42.1184082 C-13.93123836 42.57608528 -15.51432363 43.04061949 -17.09521484 43.51245117 C-22.66527731 45.11157423 -22.66527731 45.11157423 -26 44 C-17.44573308 29.26468383 -8.81294977 14.58222672 0 0 Z " fill="#ED5555" transform="translate(468,404)"/>
<path d="M0 0 C3.89559588 1.58423189 6.52114408 4.24747257 9.421875 7.19140625 C9.92672424 7.69671371 10.43157349 8.20202118 10.95172119 8.72264099 C12.01299872 9.78692989 13.07185455 10.85363849 14.12841797 11.92260742 C15.75303325 13.5655675 17.38559778 15.20029617 19.01953125 16.83398438 C20.04995399 17.86931932 21.07991835 18.9051107 22.109375 19.94140625 C22.59992371 20.43306778 23.09047241 20.92472931 23.59588623 21.43128967 C27 24.8839275 27 24.8839275 27 26 C9.84 26 -7.32 26 -25 26 C-21.4476663 21.85561068 -18.09346755 17.96953969 -14.2578125 14.16015625 C-13.41992188 13.32548828 -12.58203125 12.49082031 -11.71875 11.63085938 C-10.8628125 10.78330078 -10.006875 9.93574219 -9.125 9.0625 C-8.24585938 8.18787109 -7.36671875 7.31324219 -6.4609375 6.41210938 C-4.3095654 4.27242952 -2.15588208 2.13513403 0 0 Z " fill="#F05656" transform="translate(255,51)"/>
<path d="M0 0 C1.9375 1.625 1.9375 1.625 3 4 C3.25 7.375 3.25 7.375 2 11 C-0.72518422 13.47911793 -3.8142393 15.17547138 -7 17 C-7.84949219 17.57492188 -8.69898438 18.14984375 -9.57421875 18.7421875 C-13.61336047 21.4267013 -16.00504008 22.98420699 -20.9375 23.0625 C-25.61812024 21.43861135 -25.61812024 21.43861135 -27 19 C-27.6875 15.6875 -27.6875 15.6875 -27 12 C-24.67968238 9.45959805 -21.9232448 7.78303856 -19 6 C-18.12472656 5.44828125 -17.24945313 4.8965625 -16.34765625 4.328125 C-6.48299038 -1.7558099 -6.48299038 -1.7558099 0 0 Z " fill="#030300" transform="translate(184,186)"/>
</svg>
